<svg width="48" height="54" viewBox="0 0 48 54" fill="none" xmlns="http://www.w3.org/2000/svg">
<path d="M48 13.7033V32.7705C48 40.3383 41.6674 46.4738 33.8565 46.4738H32.426L25.1206 53.5472C24.8345 53.8244 24.4387 54 24 54C23.5947 54 23.2275 53.8568 22.9462 53.6165L22.8222 53.4964L22.8174 53.4918L15.574 46.4738H14.1387C6.3326 46.4738 0 40.3383 0 32.7705V13.7033C0 6.13552 6.3326 0 14.1435 0H33.8565C41.6674 0 48 6.13552 48 13.7033Z" fill="#FFD152"/>
<path d="M10.7022 26.4143C9.30977 26.4143 8.51613 27.9516 9.32402 29.0616C12.4653 33.3855 17.6596 36.2046 23.5287 36.2046C29.3978 36.2046 34.5873 33.3809 37.7286 29.0616C38.5365 27.9516 37.7429 26.4143 36.3504 26.4143H10.7022Z" fill="white"/>
<path d="M18.8572 19.8704H10.4551V15.7648C10.4551 13.4983 12.337 11.6592 14.6561 11.6592C16.9753 11.6592 18.8572 13.4983 18.8572 15.7648V19.8704Z" fill="white"/>
<path d="M36.6023 19.8704H28.2002V15.7648C28.2002 13.4983 30.0821 11.6592 32.4012 11.6592C34.7204 11.6592 36.6023 13.4983 36.6023 15.7648V19.8704Z" fill="white"/>
</svg>
